<svg width="170" height="56" viewBox="0 0 170 56" fill="none" xmlns="http://www.w3.org/2000/svg">
<path d="M0 28C0 12.536 12.536 0 28 0H142C157.464 0 170 12.536 170 28C170 43.464 157.464 56 142 56H28C12.536 56 0 43.464 0 28Z" fill="#FF6537"/>
<g clip-path="url(#clip0_2_644)">
<line x1="31" y1="28.0859" x2="46" y2="28.0859" stroke="white" stroke-width="2"/>
<path d="M41 23L46 28L41 33" stroke="white" stroke-width="2"/>
</g>
<path d="M60.88 21.56H66C66.6187 21.56 67.1573 21.6347 67.616 21.784C68.0853 21.9227 68.4693 22.1253 68.768 22.392C69.376 22.936 69.68 23.6507 69.68 24.536C69.68 25.1227 69.5147 25.608 69.184 25.992C68.864 26.3653 68.432 26.6427 67.888 26.824V26.872C68.528 27.0533 69.04 27.3947 69.424 27.896C69.8187 28.3973 70.016 29 70.016 29.704C70.016 30.248 69.9307 30.712 69.76 31.096C69.6 31.4693 69.3493 31.8 69.008 32.088C68.6773 32.376 68.2667 32.6 67.776 32.76C67.2853 32.92 66.736 33 66.128 33H60.88V21.56ZM63.2 31.08H65.872C66.4373 31.08 66.8747 30.9413 67.184 30.664C67.504 30.376 67.664 29.9973 67.664 29.528C67.664 28.984 67.488 28.5733 67.136 28.296C66.784 28.0187 66.3413 27.88 65.808 27.88H63.2V31.08ZM65.712 26.168C66.224 26.168 66.6347 26.0507 66.944 25.816C67.2533 25.5813 67.408 25.24 67.408 24.792C67.408 24.3653 67.2587 24.0347 66.96 23.8C66.672 23.5653 66.272 23.448 65.76 23.448H63.2V26.168H65.712ZM76.388 33V32.04H76.34C76.0627 32.4133 75.7427 32.7067 75.38 32.92C75.028 33.1227 74.564 33.224 73.988 33.224C73.0707 33.224 72.3667 32.9573 71.876 32.424C71.3853 31.8907 71.14 31.1707 71.14 30.264V24.792H73.3V29.896C73.3 30.376 73.4067 30.744 73.62 31C73.844 31.256 74.1907 31.384 74.66 31.384C75.172 31.384 75.572 31.2133 75.86 30.872C76.1587 30.52 76.308 30.072 76.308 29.528V24.792H78.484V33H76.388ZM80.0675 33.976H80.8355C81.2728 33.976 81.5822 33.8747 81.7635 33.672C81.9555 33.4693 82.0515 33.1973 82.0515 32.856C82.0515 32.7493 82.0408 32.632 82.0195 32.504C81.9982 32.3653 81.9608 32.2107 81.9075 32.04C81.8648 31.8693 81.8008 31.672 81.7155 31.448C81.6408 31.2133 81.5448 30.9413 81.4275 30.632L79.2195 24.792H81.5075L82.7235 28.488C82.7875 28.68 82.8462 28.8827 82.8995 29.096C82.9635 29.2987 83.0222 29.4907 83.0755 29.672C83.1288 29.8747 83.1875 30.0773 83.2515 30.28H83.2835C83.3262 30.0773 83.3742 29.8747 83.4275 29.672C83.4702 29.4907 83.5182 29.2987 83.5715 29.096C83.6355 28.8827 83.6995 28.68 83.7635 28.488L84.9155 24.792H87.1075L84.2435 33.208C84.0835 33.6667 83.9182 34.0507 83.7475 34.36C83.5875 34.68 83.3955 34.936 83.1715 35.128C82.9582 35.3307 82.7022 35.4747 82.4035 35.56C82.1155 35.6453 81.7635 35.688 81.3475 35.688H80.0675V33.976ZM90.0521 24.792H91.1881V22.232H93.3161V24.792H94.7241V26.232H93.3161V30.584C93.3161 30.8933 93.3908 31.1067 93.5401 31.224C93.6895 31.3413 93.8868 31.4 94.1321 31.4H94.5481C94.6228 31.4 94.6975 31.3947 94.7721 31.384V32.984C94.6655 32.9947 94.5481 33 94.4201 33C94.3028 33.0107 94.1588 33.016 93.9881 33.016C93.8175 33.016 93.6255 33.016 93.4121 33.016C93.1455 33.016 92.8788 32.9893 92.6121 32.936C92.3561 32.872 92.1215 32.7653 91.9081 32.616C91.6948 32.4667 91.5188 32.264 91.3801 32.008C91.2521 31.752 91.1881 31.432 91.1881 31.048V26.232H90.0521V24.792ZM95.8446 24.792H98.0206V33H95.8446V24.792ZM95.8446 21.56H98.0206V23.512H95.8446V21.56ZM103.231 33.24C102.58 33.24 101.993 33.128 101.471 32.904C100.959 32.68 100.521 32.376 100.159 31.992C99.7961 31.5973 99.5134 31.1387 99.3108 30.616C99.1188 30.0827 99.0228 29.512 99.0228 28.904C99.0228 28.296 99.1188 27.7307 99.3108 27.208C99.5028 26.6747 99.7748 26.216 100.127 25.832C100.489 25.4373 100.921 25.128 101.423 24.904C101.924 24.68 102.489 24.568 103.119 24.568C103.652 24.568 104.132 24.6427 104.559 24.792C104.985 24.9413 105.353 25.1493 105.663 25.416C105.983 25.672 106.239 25.9867 106.431 26.36C106.633 26.7227 106.772 27.128 106.847 27.576H104.719C104.644 27.2133 104.473 26.9147 104.207 26.68C103.951 26.4347 103.62 26.312 103.215 26.312C102.553 26.312 102.057 26.5467 101.727 27.016C101.396 27.4747 101.231 28.104 101.231 28.904C101.231 29.6827 101.385 30.312 101.695 30.792C102.015 31.2613 102.511 31.496 103.183 31.496C103.631 31.496 103.999 31.384 104.287 31.16C104.575 30.9253 104.756 30.5733 104.831 30.104H106.927C106.895 30.5413 106.783 30.952 106.591 31.336C106.409 31.7093 106.159 32.04 105.839 32.328C105.529 32.6053 105.151 32.8293 104.703 33C104.265 33.16 103.775 33.24 103.231 33.24ZM110.98 29.256L110.036 30.232V33H107.876V21.56H110.036V27.896L112.948 24.792H115.556L112.532 27.912L115.924 33H113.284L110.98 29.256ZM119.904 33.24C119.221 33.24 118.613 33.128 118.08 32.904C117.557 32.68 117.114 32.376 116.752 31.992C116.389 31.5973 116.112 31.1333 115.92 30.6C115.738 30.0667 115.648 29.496 115.648 28.888C115.648 28.28 115.744 27.7147 115.936 27.192C116.138 26.6587 116.416 26.2 116.768 25.816C117.13 25.432 117.557 25.128 118.048 24.904C118.549 24.68 119.098 24.568 119.696 24.568C120.357 24.568 120.938 24.6907 121.44 24.936C121.941 25.1707 122.362 25.5067 122.704 25.944C123.045 26.3813 123.301 26.904 123.472 27.512C123.653 28.1093 123.744 28.776 123.744 29.512H117.792C117.877 30.152 118.09 30.6533 118.432 31.016C118.784 31.3787 119.269 31.56 119.888 31.56C120.314 31.56 120.656 31.4693 120.912 31.288C121.168 31.1067 121.354 30.8613 121.472 30.552H123.616C123.541 30.9147 123.402 31.2613 123.2 31.592C123.008 31.912 122.752 32.1947 122.432 32.44C122.122 32.6853 121.754 32.8773 121.328 33.016C120.901 33.1653 120.426 33.24 119.904 33.24ZM119.728 26.248C119.152 26.248 118.714 26.408 118.416 26.728C118.117 27.0373 117.92 27.464 117.824 28.008H121.472C121.44 27.4853 121.264 27.064 120.944 26.744C120.634 26.4133 120.229 26.248 119.728 26.248ZM124.115 24.792H125.251V22.232H127.379V24.792H128.787V26.232H127.379V30.584C127.379 30.8933 127.453 31.1067 127.603 31.224C127.752 31.3413 127.949 31.4 128.195 31.4H128.611C128.685 31.4 128.76 31.3947 128.835 31.384V32.984C128.728 32.9947 128.611 33 128.483 33C128.365 33.0107 128.221 33.016 128.051 33.016C127.88 33.016 127.688 33.016 127.475 33.016C127.208 33.016 126.941 32.9893 126.675 32.936C126.419 32.872 126.184 32.7653 125.971 32.616C125.757 32.4667 125.581 32.264 125.443 32.008C125.315 31.752 125.251 31.432 125.251 31.048V26.232H124.115V24.792ZM133.313 33.24C132.119 33.24 131.196 32.9787 130.545 32.456C129.895 31.9227 129.537 31.2187 129.473 30.344H131.489C131.564 30.824 131.756 31.1707 132.065 31.384C132.385 31.5973 132.791 31.704 133.281 31.704C133.761 31.704 134.129 31.6187 134.385 31.448C134.652 31.2773 134.785 31.048 134.785 30.76C134.785 30.568 134.721 30.4133 134.593 30.296C134.476 30.1787 134.316 30.0827 134.113 30.008C133.921 29.9333 133.692 29.8747 133.425 29.832C133.169 29.7787 132.903 29.7253 132.625 29.672C132.252 29.5973 131.889 29.512 131.537 29.416C131.196 29.32 130.887 29.1813 130.609 29C130.343 28.8187 130.124 28.584 129.953 28.296C129.793 28.008 129.713 27.64 129.713 27.192C129.713 26.744 129.799 26.36 129.969 26.04C130.14 25.7093 130.375 25.4373 130.673 25.224C130.983 25 131.34 24.8347 131.745 24.728C132.151 24.6213 132.588 24.568 133.057 24.568C134.145 24.568 134.983 24.8133 135.569 25.304C136.156 25.7947 136.492 26.456 136.577 27.288H134.609C134.556 26.84 134.396 26.5307 134.129 26.36C133.863 26.1787 133.495 26.088 133.025 26.088C132.599 26.088 132.257 26.168 132.001 26.328C131.745 26.4773 131.617 26.7013 131.617 27C131.617 27.1813 131.681 27.3253 131.809 27.432C131.937 27.528 132.103 27.6133 132.305 27.688C132.519 27.752 132.759 27.8053 133.025 27.848C133.303 27.8907 133.585 27.944 133.873 28.008C134.215 28.0827 134.556 28.168 134.897 28.264C135.249 28.36 135.564 28.504 135.841 28.696C136.119 28.8773 136.343 29.1227 136.513 29.432C136.684 29.7307 136.769 30.12 136.769 30.6C136.769 31.016 136.684 31.3893 136.513 31.72C136.343 32.04 136.103 32.312 135.793 32.536C135.495 32.76 135.132 32.9307 134.705 33.048C134.289 33.176 133.825 33.24 133.313 33.24Z" fill="white"/>
<defs>
<clipPath id="clip0_2_644">
<rect width="16" height="16" fill="white" transform="translate(32 20)"/>
</clipPath>
</defs>
</svg>
