<svg width="17" height="24" viewBox="0 0 17 24" fill="none" xmlns="http://www.w3.org/2000/svg">
<path d="M8 16C5.87827 16 3.84344 15.1571 2.34315 13.6569C0.842855 12.1566 2.27629e-07 10.1217 0 8C-2.27629e-07 5.87827 0.842854 3.84344 2.34314 2.34314C3.84344 0.842854 5.87827 -1.90735e-06 8 -1.90735e-06L8 16Z" fill="white"/>
<path d="M8.91431 8C11.036 8 13.0709 8.84285 14.5712 10.3431C16.0714 11.8434 16.9143 13.8783 16.9143 16C16.9143 18.1217 16.0715 20.1566 14.5712 21.6568C13.0709 23.1571 11.0361 24 8.91432 24L8.91431 8Z" fill="white"/>
</svg>
